<mxfile host="app.diagrams.net" agent="Mozilla/5.0 (Windows NT 10.0; Win64; x64) AppleWebKit/537.36 (KHTML, like Gecko) Chrome/128.0.0.0 Safari/537.36" version="24.7.7">
  <diagram name="Page-1" id="eytBgEjfciLrzE4KIZu_">
    <mxGraphModel dx="830" dy="515" grid="1" gridSize="10" guides="1" tooltips="1" connect="1" arrows="1" fold="1" page="1" pageScale="1" pageWidth="827" pageHeight="1169" math="0" shadow="0">
      <root>
        <mxCell id="0" />
        <mxCell id="1" parent="0" />
        <mxCell id="uJbGGp0HQ3dZ1drLdvZo-17" style="edgeStyle=orthogonalEdgeStyle;rounded=0;orthogonalLoop=1;jettySize=auto;html=1;entryX=0;entryY=0.5;entryDx=0;entryDy=0;" edge="1" parent="1" source="uJbGGp0HQ3dZ1drLdvZo-1" target="uJbGGp0HQ3dZ1drLdvZo-11">
          <mxGeometry relative="1" as="geometry" />
        </mxCell>
        <mxCell id="uJbGGp0HQ3dZ1drLdvZo-25" style="edgeStyle=orthogonalEdgeStyle;rounded=0;orthogonalLoop=1;jettySize=auto;html=1;entryX=0;entryY=0.75;entryDx=0;entryDy=0;" edge="1" parent="1" source="uJbGGp0HQ3dZ1drLdvZo-1" target="uJbGGp0HQ3dZ1drLdvZo-3">
          <mxGeometry relative="1" as="geometry" />
        </mxCell>
        <mxCell id="uJbGGp0HQ3dZ1drLdvZo-1" value="img.jpg" style="rounded=0;whiteSpace=wrap;html=1;" vertex="1" parent="1">
          <mxGeometry x="100" y="230" width="60" height="60" as="geometry" />
        </mxCell>
        <mxCell id="uJbGGp0HQ3dZ1drLdvZo-24" value="" style="edgeStyle=orthogonalEdgeStyle;rounded=0;orthogonalLoop=1;jettySize=auto;html=1;" edge="1" parent="1" source="uJbGGp0HQ3dZ1drLdvZo-2" target="uJbGGp0HQ3dZ1drLdvZo-3">
          <mxGeometry relative="1" as="geometry" />
        </mxCell>
        <mxCell id="uJbGGp0HQ3dZ1drLdvZo-2" value="style.css" style="rounded=0;whiteSpace=wrap;html=1;" vertex="1" parent="1">
          <mxGeometry x="100" y="320" width="60" height="60" as="geometry" />
        </mxCell>
        <mxCell id="uJbGGp0HQ3dZ1drLdvZo-3" value="App.js" style="rounded=0;whiteSpace=wrap;html=1;" vertex="1" parent="1">
          <mxGeometry x="100" y="410" width="60" height="60" as="geometry" />
        </mxCell>
        <mxCell id="uJbGGp0HQ3dZ1drLdvZo-5" value="Global HTML&lt;div&gt;(static)&lt;/div&gt;" style="whiteSpace=wrap;html=1;aspect=fixed;" vertex="1" parent="1">
          <mxGeometry x="610" y="325" width="50" height="50" as="geometry" />
        </mxCell>
        <mxCell id="uJbGGp0HQ3dZ1drLdvZo-7" value="Global CSS&lt;div&gt;(style)&lt;/div&gt;" style="whiteSpace=wrap;html=1;aspect=fixed;" vertex="1" parent="1">
          <mxGeometry x="530" y="240" width="80" height="80" as="geometry" />
        </mxCell>
        <mxCell id="uJbGGp0HQ3dZ1drLdvZo-8" value="Global Resources&lt;div&gt;(MultiMedia)&lt;/div&gt;" style="whiteSpace=wrap;html=1;aspect=fixed;" vertex="1" parent="1">
          <mxGeometry x="530" y="375" width="80" height="80" as="geometry" />
        </mxCell>
        <mxCell id="uJbGGp0HQ3dZ1drLdvZo-9" value="Global CDN&lt;div&gt;Injections&lt;/div&gt;" style="whiteSpace=wrap;html=1;aspect=fixed;" vertex="1" parent="1">
          <mxGeometry x="660" y="240" width="80" height="80" as="geometry" />
        </mxCell>
        <mxCell id="uJbGGp0HQ3dZ1drLdvZo-22" value="" style="edgeStyle=orthogonalEdgeStyle;rounded=0;orthogonalLoop=1;jettySize=auto;html=1;" edge="1" parent="1" source="uJbGGp0HQ3dZ1drLdvZo-10" target="uJbGGp0HQ3dZ1drLdvZo-11">
          <mxGeometry relative="1" as="geometry" />
        </mxCell>
        <mxCell id="uJbGGp0HQ3dZ1drLdvZo-10" value=".junit" style="whiteSpace=wrap;html=1;aspect=fixed;" vertex="1" parent="1">
          <mxGeometry x="190" y="230" width="60" height="60" as="geometry" />
        </mxCell>
        <mxCell id="uJbGGp0HQ3dZ1drLdvZo-18" value="" style="edgeStyle=orthogonalEdgeStyle;rounded=0;orthogonalLoop=1;jettySize=auto;html=1;" edge="1" parent="1" source="uJbGGp0HQ3dZ1drLdvZo-11" target="uJbGGp0HQ3dZ1drLdvZo-12">
          <mxGeometry relative="1" as="geometry" />
        </mxCell>
        <mxCell id="uJbGGp0HQ3dZ1drLdvZo-20" value="" style="edgeStyle=orthogonalEdgeStyle;rounded=0;orthogonalLoop=1;jettySize=auto;html=1;" edge="1" parent="1" source="uJbGGp0HQ3dZ1drLdvZo-11" target="uJbGGp0HQ3dZ1drLdvZo-14">
          <mxGeometry relative="1" as="geometry" />
        </mxCell>
        <mxCell id="uJbGGp0HQ3dZ1drLdvZo-21" value="" style="edgeStyle=orthogonalEdgeStyle;rounded=0;orthogonalLoop=1;jettySize=auto;html=1;" edge="1" parent="1" source="uJbGGp0HQ3dZ1drLdvZo-11" target="uJbGGp0HQ3dZ1drLdvZo-10">
          <mxGeometry relative="1" as="geometry" />
        </mxCell>
        <mxCell id="uJbGGp0HQ3dZ1drLdvZo-11" value=".coffee" style="whiteSpace=wrap;html=1;aspect=fixed;" vertex="1" parent="1">
          <mxGeometry x="190" y="320" width="60" height="60" as="geometry" />
        </mxCell>
        <mxCell id="uJbGGp0HQ3dZ1drLdvZo-12" value=".ts" style="whiteSpace=wrap;html=1;aspect=fixed;" vertex="1" parent="1">
          <mxGeometry x="190" y="410" width="60" height="60" as="geometry" />
        </mxCell>
        <mxCell id="uJbGGp0HQ3dZ1drLdvZo-23" style="edgeStyle=orthogonalEdgeStyle;rounded=0;orthogonalLoop=1;jettySize=auto;html=1;entryX=1;entryY=0.5;entryDx=0;entryDy=0;" edge="1" parent="1" source="uJbGGp0HQ3dZ1drLdvZo-13" target="uJbGGp0HQ3dZ1drLdvZo-12">
          <mxGeometry relative="1" as="geometry" />
        </mxCell>
        <mxCell id="uJbGGp0HQ3dZ1drLdvZo-13" value=".sass" style="whiteSpace=wrap;html=1;aspect=fixed;" vertex="1" parent="1">
          <mxGeometry x="290" y="230" width="60" height="60" as="geometry" />
        </mxCell>
        <mxCell id="uJbGGp0HQ3dZ1drLdvZo-14" value=".scss" style="whiteSpace=wrap;html=1;aspect=fixed;" vertex="1" parent="1">
          <mxGeometry x="290" y="320" width="60" height="60" as="geometry" />
        </mxCell>
        <mxCell id="uJbGGp0HQ3dZ1drLdvZo-19" value="" style="edgeStyle=orthogonalEdgeStyle;rounded=0;orthogonalLoop=1;jettySize=auto;html=1;" edge="1" parent="1" source="uJbGGp0HQ3dZ1drLdvZo-15" target="uJbGGp0HQ3dZ1drLdvZo-14">
          <mxGeometry relative="1" as="geometry" />
        </mxCell>
        <mxCell id="uJbGGp0HQ3dZ1drLdvZo-15" value=".jade" style="whiteSpace=wrap;html=1;aspect=fixed;" vertex="1" parent="1">
          <mxGeometry x="290" y="410" width="60" height="60" as="geometry" />
        </mxCell>
        <mxCell id="uJbGGp0HQ3dZ1drLdvZo-16" value="Global&lt;div&gt;Scripts&lt;/div&gt;" style="whiteSpace=wrap;html=1;aspect=fixed;" vertex="1" parent="1">
          <mxGeometry x="660" y="380" width="80" height="80" as="geometry" />
        </mxCell>
        <mxCell id="uJbGGp0HQ3dZ1drLdvZo-30" value="" style="shape=flexArrow;endArrow=classic;html=1;rounded=0;fillColor=#d5e8d4;strokeColor=#82b366;" edge="1" parent="1">
          <mxGeometry width="50" height="50" relative="1" as="geometry">
            <mxPoint x="390" y="330" as="sourcePoint" />
            <mxPoint x="510" y="330" as="targetPoint" />
          </mxGeometry>
        </mxCell>
        <mxCell id="uJbGGp0HQ3dZ1drLdvZo-31" value="Module&lt;div&gt;Bundler&lt;/div&gt;" style="edgeLabel;html=1;align=center;verticalAlign=middle;resizable=0;points=[];" vertex="1" connectable="0" parent="uJbGGp0HQ3dZ1drLdvZo-30">
          <mxGeometry x="-0.0302" y="-5" relative="1" as="geometry">
            <mxPoint as="offset" />
          </mxGeometry>
        </mxCell>
      </root>
    </mxGraphModel>
  </diagram>
</mxfile>
